<?xml version="1.0" encoding="utf-8"?>
<!-- Generator: Adobe Illustrator 16.0.0, SVG Export Plug-In . SVG Version: 6.00 Build 0)  -->
<!DOCTYPE svg PUBLIC "-//W3C//DTD SVG 1.1//EN" "http://www.w3.org/Graphics/SVG/1.1/DTD/svg11.dtd">
<svg version="1.1" id="Layer_1" xmlns="http://www.w3.org/2000/svg" xmlns:xlink="http://www.w3.org/1999/xlink" x="0px" y="0px"
	 width="114.706px" height="65px" viewBox="0 0 114.706 65" enable-background="new 0 0 114.706 65" xml:space="preserve">
<g>
	<g>
		<path fill="#FFFFFF" d="M55.704,43.9c-11.766,0-21.339-9.573-21.339-21.339c0-11.767,9.573-21.34,21.339-21.34
			c11.767,0,21.339,9.573,21.339,21.34C77.042,34.327,67.47,43.9,55.704,43.9z M55.704,4.681c-9.858,0-17.879,8.021-17.879,17.879
			c0,9.858,8.021,17.878,17.879,17.878s17.88-8.021,17.88-17.878C73.583,12.702,65.562,4.681,55.704,4.681z"/>
		<path fill="#FFFFFF" d="M55.968,36.172c-0.789,0-1.48-0.535-1.676-1.301l-3.138-12.233l-1.086,3.986
			c-0.205,0.753-0.889,1.275-1.669,1.275H36.254c-0.956,0-1.73-0.774-1.73-1.73s0.775-1.73,1.73-1.73h10.823l2.459-9.023
			c0.205-0.753,0.889-1.276,1.669-1.276c0.004,0,0.008,0,0.013,0c0.786,0.006,1.468,0.54,1.663,1.301l2.984,11.632l3.804-16.776
			c0.183-0.805,0.905-1.368,1.734-1.347c0.824,0.022,1.519,0.624,1.658,1.438l2.109,12.292h9.982c0.955,0,1.73,0.774,1.73,1.73
			s-0.775,1.73-1.73,1.73H63.711c-0.841,0-1.562-0.607-1.704-1.437l-0.887-5.162l-3.465,15.284
			c-0.177,0.779-0.864,1.336-1.664,1.348C55.984,36.172,55.976,36.172,55.968,36.172z"/>
	</g>
	<path fill="#FFFFFF" d="M33.975,38.291c-1.814,2.188-3.868,3.801-6.161,4.841c-2.294,1.04-4.774,1.56-7.441,1.56
		c-2.828,0-5.441-0.48-7.841-1.441c-2.4-0.959-4.455-2.306-6.161-4.039c-1.708-1.734-3.041-3.788-4-6.162
		c-0.96-2.373-1.44-4.973-1.44-7.801c0-2.827,0.48-5.427,1.44-7.801c0.96-2.373,2.293-4.427,4-6.161
		c1.706-1.732,3.761-3.081,6.161-4.041c2.4-0.96,5.013-1.439,7.841-1.439c2.721,0,5.241,0.56,7.561,1.68
		c2.32,1.121,4.387,2.694,6.201,4.721l-3.841,2.88c-1.388-1.546-2.908-2.76-4.561-3.641c-1.654-0.88-3.44-1.319-5.361-1.319
		c-2.24,0-4.268,0.399-6.081,1.2c-1.814,0.8-3.36,1.88-4.641,3.241c-1.28,1.36-2.254,2.96-2.92,4.8c-0.668,1.84-1,3.8-1,5.881
		c0,2.08,0.333,4.041,1,5.88c0.666,1.84,1.64,3.44,2.92,4.8c1.28,1.361,2.826,2.441,4.641,3.241c1.813,0.8,3.841,1.2,6.081,1.2
		c2.026,0,3.88-0.466,5.561-1.4c1.681-0.933,3.133-2.172,4.361-3.721L33.975,38.291z"/>
	<path fill="#FFFFFF" d="M112.656,37.024c-1.869,2.828-4.175,4.855-6.921,6.081c-2.748,1.227-5.774,1.84-9.082,1.84
		c-2.828,0-5.387-0.479-7.682-1.44c-2.292-0.96-4.267-2.307-5.92-4.041c-1.653-1.732-2.92-3.786-3.8-6.16
		c-0.881-2.373-1.32-5.001-1.32-7.881c0-2.772,0.452-5.333,1.36-7.681c0.906-2.346,2.187-4.387,3.839-6.121
		c1.653-1.732,3.602-3.093,5.841-4.081c2.241-0.986,4.722-1.48,7.443-1.48c2.825,0,5.32,0.494,7.48,1.48
		c2.159,0.988,3.972,2.293,5.439,3.92c1.468,1.627,2.574,3.48,3.321,5.561c0.745,2.08,1.119,4.188,1.119,6.321v3.361H82.732
		c0,1.013,0.2,2.307,0.6,3.88c0.4,1.574,1.133,3.108,2.201,4.601c1.065,1.494,2.493,2.774,4.278,3.84
		c1.787,1.068,4.093,1.6,6.923,1.6c2.451,0,4.827-0.586,7.119-1.76c2.294-1.173,4.053-2.773,5.282-4.8L112.656,37.024z
		 M108.975,22.382c0-1.653-0.335-3.201-1.001-4.641c-0.667-1.44-1.573-2.707-2.72-3.801c-1.148-1.092-2.508-1.96-4.081-2.6
		c-1.574-0.641-3.24-0.96-5.001-0.96c-2.612,0-4.787,0.534-6.52,1.6c-1.735,1.067-3.108,2.294-4.12,3.681
		c-1.016,1.387-1.734,2.734-2.162,4.04c-0.427,1.308-0.639,2.201-0.639,2.681H108.975z"/>
	<g>
		<path fill="#FFFFFF" d="M3.844,51.115h1.552l4.046,9.315l4.046-9.315h1.474v11.104h-1.035v-9.786h-0.031l-4.234,9.786H9.207
			L4.91,52.432H4.878v9.786H3.844V51.115z"/>
		<path fill="#FFFFFF" d="M18.146,56.666c0-0.846,0.141-1.625,0.423-2.337c0.282-0.711,0.674-1.325,1.176-1.842
			c0.501-0.518,1.106-0.923,1.812-1.216c0.706-0.292,1.482-0.439,2.329-0.439c0.846,0,1.623,0.146,2.329,0.439
			c0.706,0.293,1.31,0.698,1.812,1.216c0.502,0.518,0.894,1.131,1.176,1.842c0.282,0.711,0.423,1.491,0.423,2.337
			c0,0.847-0.141,1.628-0.423,2.345c-0.283,0.716-0.674,1.332-1.176,1.85c-0.502,0.517-1.106,0.92-1.812,1.208
			c-0.706,0.288-1.482,0.431-2.329,0.431c-0.847,0-1.624-0.144-2.329-0.431s-1.31-0.69-1.812-1.208
			c-0.502-0.519-0.894-1.134-1.176-1.85C18.288,58.294,18.146,57.513,18.146,56.666z M19.181,56.666c0,0.69,0.11,1.333,0.33,1.929
			s0.533,1.113,0.941,1.553c0.408,0.439,0.901,0.784,1.481,1.035c0.581,0.25,1.231,0.376,1.953,0.376
			c0.721,0,1.372-0.126,1.952-0.376c0.581-0.25,1.075-0.596,1.482-1.035c0.408-0.439,0.721-0.957,0.941-1.553s0.33-1.239,0.33-1.929
			c0-0.689-0.11-1.333-0.33-1.929s-0.533-1.113-0.941-1.552c-0.407-0.44-0.901-0.785-1.482-1.036
			c-0.58-0.25-1.231-0.376-1.952-0.376c-0.722,0-1.373,0.126-1.953,0.376c-0.58,0.25-1.074,0.596-1.481,1.036
			c-0.408,0.438-0.722,0.956-0.941,1.552S19.181,55.977,19.181,56.666z"/>
		<path fill="#FFFFFF" d="M32.919,51.115h1.333l6.759,9.724h0.031v-9.724h1.035v11.104h-1.333l-6.759-9.724h-0.032v9.724h-1.035
			V51.115z"/>
		<path fill="#FFFFFF" d="M46.094,51.115h1.035v11.104h-1.035V51.115z"/>
		<path fill="#FFFFFF" d="M53.605,52.055H49.81v-0.94h8.627v0.94h-3.796v10.164h-1.035V52.055z"/>
		<path fill="#FFFFFF" d="M60.396,56.666c0-0.846,0.143-1.625,0.424-2.337c0.282-0.711,0.676-1.325,1.177-1.842
			c0.501-0.518,1.104-0.923,1.81-1.216c0.708-0.292,1.483-0.439,2.33-0.439c0.846,0,1.623,0.146,2.329,0.439
			c0.705,0.293,1.309,0.698,1.812,1.216c0.501,0.518,0.895,1.131,1.177,1.842c0.281,0.711,0.424,1.491,0.424,2.337
			c0,0.847-0.143,1.628-0.424,2.345c-0.282,0.716-0.676,1.332-1.177,1.85c-0.503,0.517-1.106,0.92-1.812,1.208
			c-0.706,0.288-1.483,0.431-2.329,0.431c-0.847,0-1.622-0.144-2.33-0.431c-0.705-0.288-1.309-0.69-1.81-1.208
			c-0.501-0.519-0.895-1.134-1.177-1.85C60.539,58.294,60.396,57.513,60.396,56.666z M61.431,56.666c0,0.69,0.109,1.333,0.329,1.929
			c0.219,0.596,0.533,1.113,0.941,1.553c0.409,0.439,0.902,0.784,1.483,1.035c0.578,0.25,1.229,0.376,1.951,0.376
			c0.721,0,1.372-0.126,1.952-0.376c0.581-0.25,1.074-0.596,1.483-1.035c0.406-0.439,0.721-0.957,0.939-1.553
			c0.22-0.596,0.329-1.239,0.329-1.929c0-0.689-0.109-1.333-0.329-1.929c-0.219-0.596-0.533-1.113-0.939-1.552
			c-0.409-0.44-0.902-0.785-1.483-1.036c-0.58-0.25-1.231-0.376-1.952-0.376c-0.722,0-1.373,0.126-1.951,0.376
			c-0.581,0.25-1.074,0.596-1.483,1.036c-0.408,0.438-0.723,0.956-0.941,1.552C61.541,55.333,61.431,55.977,61.431,56.666z"/>
		<path fill="#FFFFFF" d="M75.17,51.115h2.916c0.147,0,0.347,0.005,0.596,0.015c0.252,0.01,0.524,0.042,0.815,0.095
			c0.293,0.052,0.592,0.135,0.895,0.25s0.575,0.283,0.815,0.502c0.24,0.22,0.438,0.497,0.598,0.831
			c0.155,0.334,0.234,0.742,0.234,1.224c0,0.533-0.093,0.972-0.274,1.317c-0.184,0.345-0.414,0.625-0.69,0.839
			c-0.278,0.215-0.582,0.375-0.917,0.479c-0.335,0.105-0.654,0.178-0.957,0.219l3.23,5.333h-1.177l-3.121-5.271h-1.929v5.271H75.17
			V51.115z M76.205,56.008h2.196c0.542,0,0.985-0.069,1.325-0.204c0.339-0.135,0.604-0.303,0.791-0.502
			c0.189-0.199,0.315-0.412,0.384-0.643c0.07-0.229,0.104-0.439,0.104-0.627s-0.034-0.397-0.104-0.627
			c-0.068-0.23-0.194-0.444-0.384-0.643c-0.188-0.199-0.452-0.366-0.791-0.502c-0.34-0.135-0.783-0.205-1.325-0.205h-2.196V56.008z"
			/>
		<path fill="#FFFFFF" d="M85.442,51.115h1.035v11.104h-1.035V51.115z"/>
		<path fill="#FFFFFF" d="M90.492,51.115h1.334l6.758,9.724h0.032v-9.724h1.034v11.104h-1.331l-6.76-9.724h-0.032v9.724h-1.035
			V51.115z"/>
		<path fill="#FFFFFF" d="M112.824,61.497c-0.648,0.366-1.32,0.625-2.015,0.776c-0.695,0.151-1.403,0.227-2.126,0.227
			c-0.845,0-1.622-0.144-2.328-0.431c-0.705-0.288-1.309-0.69-1.812-1.208c-0.501-0.519-0.895-1.134-1.177-1.85
			c-0.281-0.717-0.422-1.498-0.422-2.345c0-0.846,0.141-1.625,0.422-2.337c0.282-0.711,0.676-1.325,1.177-1.842
			c0.503-0.518,1.106-0.923,1.812-1.216c0.706-0.292,1.483-0.439,2.328-0.439c1.653,0,2.985,0.513,4.001,1.537l-0.753,0.784
			c-0.168-0.199-0.375-0.383-0.62-0.556c-0.246-0.172-0.513-0.319-0.801-0.44c-0.287-0.12-0.588-0.213-0.899-0.283
			c-0.314-0.067-0.625-0.101-0.928-0.101c-0.72,0-1.371,0.126-1.951,0.376c-0.581,0.25-1.074,0.596-1.483,1.036
			c-0.406,0.438-0.721,0.956-0.939,1.552c-0.22,0.596-0.329,1.24-0.329,1.929c0,0.69,0.109,1.333,0.329,1.929
			c0.219,0.596,0.533,1.113,0.939,1.553c0.409,0.439,0.902,0.784,1.483,1.035c0.58,0.25,1.231,0.376,1.951,0.376
			c0.597,0,1.156-0.047,1.68-0.141c0.522-0.093,0.999-0.267,1.427-0.517v-3.733h-2.665v-0.941h3.699V61.497z"/>
	</g>
</g>
</svg>
